<svg id="Layer_1" data-name="Layer 1" xmlns="http://www.w3.org/2000/svg" viewBox="0 0 720 720"><defs><style>.cls-1{fill:#606060;}.cls-2{fill:#fff;}</style></defs><title>hello</title><path class="cls-1" d="M270.49,267.39h-20"/><path class="cls-2" d="M653,528.51c2.48,0,7.46-.41,7.46-.41h0a3.17,3.17,0,0,0,2.91-2.45q5.07-22.57,10.16-45.14c5.5-15.8,8.58-32.25,12.73-48.4,13.69-53.28,16.37-106.7,2.53-160.42-6.1-23.68-15.52-45.85-25.54-68.27-5.93-13.27-14.37-24.61-21.58-37a173.83,173.83,0,0,0-22.2-30.23c-7.09-10.18-16.6-18-25.27-26.77-6.68-6.79-13.84-12.61-21-18.77-6.54-5.61-13.57-10.2-20.41-15.28C547.95,71.76,529.9,61.1,526,58.82c-4.8-4.5-41.61-19.31-47.24-21.72-3.36-1.44-48.29-13.71-48.29-13.71-6-2.13-31.72-5.42-42.4-6.18-3.86-.27-49.83,0-53.75.16-3.46-.32-15.14,1.22-17.6,1.59Q187.22,38.28,103,138.59c-7.8,9.3-7.54,20.26.26,26.91,8.26,7,18.62,5.13,27.05-4.62,7-8,13.81-16.21,21.43-23.58q71.83-69.6,170.95-83.87L336,51.93c.6,0,22.43-1.72,30-1.88,5.14-.11,16.92,1.45,22,1.84h0l10.17.78h0l15,2.43h0L430,58.47l13.52,3.43,11.76,3.44,11.57,4.16L478.81,74l13.55,6.31L509,88.88,522.48,97l11.67,7.49h0L551,117.29h0c6.11,5.27,12.5,10.24,18.32,15.82,7.71,7.38,38.43,43.84,45.58,54.87a356.88,356.88,0,0,1,21.66,38.94c10.32,21.37,16.23,44.47,21.8,67.52h0c1.16,9.38,2.26,18.78,3.5,28.15,4.81,36.41-2.48,71.6-11,106.62-4.17,17.24-7.43,34.77-14.39,51.25h0l-154.39.14-35.47-.06c.07-29.65.27-61,.07-90.62,0-5.42,1.32-7.17,6.89-7,10.61.38,141.94-.14,150.39-.14-6.82-16.24-13.32-31.76-19.87-47.25-.54-1.27-1.82-1-2.92-.9-2.24,0-118.1-.25-129.27-.24-3.14,0-5.21-.2-5.17-4.34.3-30.17.4-60.35.57-90.53l114.33-.61s25,.31,37.46.67c4.2.12,4.58-1.75,3.12-5.19q-8.48-19.92-16.7-39.95c-1.08-2.63-2.66-4-5.61-3.85-6.08.37-178.63.66-181.14.92h0c-.22,3-.91,285.44-1,288.78,0,0-210.25,0-211.43-.11h0c.21-3,2.4-5,4-7.25C241.77,398.83,293.12,324.6,345,250.75c5.73-8.15.94-22.21.94-22.21-4-10-8.24-20-11.91-30.18C332,192.65,323.18,193,323.18,193s-251.34-1.25-255.78,0h0c-7.53,9.55-10,21.43-15,32.19C23.53,286,14.61,349.83,24.42,416.06,35.54,491.16,69,555.2,123.47,608.16c18,17.51,37.4,33.29,59.53,45.44h0c5.76,4.22,10.72,6.14,18.48,10.52h0c5.06,3.65,16.56,8.08,16.56,8.08,8.23,4.45,10,4.67,15.39,6.55,8,2.8,15.35,6.76,23.66,8.32a103.11,103.11,0,0,0,18.44,5.21c5.11,1,41.35,7.44,47.07,8.19,4.61.61,8.9,1.54,13.44,1.46l16.79.19a85.06,85.06,0,0,0,18.48-.11c7.37.61,14.61-.38,21.83-1.66,5.2.52,10.17-.87,15.19-1.86l18.4-3.34,13.44-3.28a46.75,46.75,0,0,0,15.21-4.47h0a41.84,41.84,0,0,0,15.14-5h0a47.45,47.45,0,0,0,15-5.62c4.82-1.44,9.52-3.15,13.59-6.23,4.37-.8,8-3.13,11.65-5.49a59,59,0,0,0,13.65-7.52h0a59.09,59.09,0,0,0,14.9-9.4c3.95-.94,6.71-3.85,9.86-6.06,25.77-18,48.77-39,68.25-63.73,6.57-8.33,5.39-18.43-2.05-24.71-7.12-6-17.79-5.79-24.06,1.73-16.14,19.37-34.37,36.5-53.81,52.42-6.18,3.24-11.55,7.64-17,12h0a57.29,57.29,0,0,0-13.68,8.36h0a26.31,26.31,0,0,0-9.53,5.2c-4.94,1.31-9.1,4.21-13.44,6.72l-15.15,6.63a51.19,51.19,0,0,0-13.45,5h0c-5.33.78-10.28,2.73-15.19,4.84h0l-13.34,3.6a62.66,62.66,0,0,0-16.83,3.47l-18.64,2.59a10,10,0,0,0-5.11.71l-48.3.5-1.77-.11-16.71-1.55L307.48,664l-16.71-3.3L275.57,657h0l-18.29-5.7-18.67-7.48c-5.53-2.52-11.15-4.84-16.58-7.57-6.26-3.14-12.36-6.09-18.71-9.51-6.57-3.54-11.8-8.87-18.23-12.52h0c-23.55-17.62-45.52-36.92-63.65-60.27-52-67-73.33-142.49-62.95-226.84,3.64-29.61,12.58-57.65,24-85v-1.68c5-.19,204.61.06,204.61.06h0c.05,2.5-137.8,189-170.72,233.55-2.73,3.69.21,10.11.21,10.11l29.65,38.34s7.69,6.05,13.08,6.05Z"/></svg>